<?xml version="1.0" standalone="yes"?>
<svg xmlns="http://www.w3.org/2000/svg" width="107" height="78">
<path style="fill:#f2f7fa; stroke:none;" d="M0 0L0 78L107 78L107 0L0 0z"/>
<path style="fill:#ed262d; stroke:none;" d="M16 54L87 54L81.6096 44.0278L68 43L34 43C39.8871 35.341 45.7402 20.9923 54.0147 15.9313C57.971 13.5115 68.8549 21.1376 68.8549 25.5756C68.8549 35.1558 55.487 32.2647 51 29C40.9512 37.4506 55.8697 44.709 63.9599 40.2315C77.9916 32.4656 70.091 19.5923 63.598 10.7145C61.0669 7.25376 61.125 2.48962 56.01 1.49228C50.4721 0.412468 46.6325 8.30802 44 12C35.0123 24.605 20.7141 39.2063 16 54z"/>
<path style="fill:#faea12; stroke:none;" d="M50 3L51 4L50 3M47 7L48 8L47 7M62 8L62 11L63 11L62 8M42 14L43 15L42 14M55 14L56 15L55 14M58 15L59 16L58 15M53 32C55.6825 31.9687 58.3348 32.9164 61.0039 32.6937C84.5586 30.7282 50.6371 5.3718 51.1883 25.9992C51.2458 28.1531 52.1787 30.0613 53 32M37 21L38 22L37 21M47 23L48 24L47 23z"/>
<path style="fill:#64c5e9; stroke:none;" d="M62 23L62 28L59 28L59 23C47.6499 29.3368 71.1603 32.3472 62 23z"/>
<path style="fill:#4a4c4f; stroke:none;" d="M60 23L60 25L62 25L62 23L60 23z"/>
<path style="fill:#faea12; stroke:none;" d="M35 24L36 25L35 24M60 25L61 26L60 25z"/>
<path style="fill:#f2f7fa; stroke:none;" d="M59.3333 26.6667L59.6667 27.3333L59.3333 26.6667z"/>
<path style="fill:#4a4c4f; stroke:none;" d="M60 26L60 28L62 28L62 26L60 26z"/>
<path style="fill:#f2f7fa; stroke:none;" d="M51 29L52 30L51 29M52 30L53 31L52 30z"/>
<path style="fill:#faea12; stroke:none;" d="M30 31L31 32L30 31z"/>
<path style="fill:#f2f7fa; stroke:none;" d="M54 31L55 32L54 31z"/>
<path style="fill:#faea12; stroke:none;" d="M47 32L48 33L47 32M40 33L41 34L40 33M66 38L67 39L66 38z"/>
<path style="fill:#4a4c4f; stroke:none;" d="M84 39L84 43L87 42L86 44C89.5985 41.3794 88.443 38.3174 84 39z"/>
<path style="fill:#64c5e9; stroke:none;" d="M85 39L85 40L87 42L88 42L85 39M51 40L52 41L51 40M83.3333 40.6667L83.6667 41.3333L83.3333 40.6667z"/>
<path style="fill:#f2f7fa; stroke:none;" d="M84.3333 40.6667L84.6667 41.3333L84.3333 40.6667z"/>
<path style="fill:#faea12; stroke:none;" d="M23 41L24 42L23 41z"/>
<path style="fill:#64c5e9; stroke:none;" d="M54 41L55 42L54 41M85.3333 42.6667L85.6667 43.3333L85.3333 42.6667z"/>
<path style="fill:#f2f7fa; stroke:none;" d="M86 42L87 43L86 42z"/>
<path style="fill:#64c5e9; stroke:none;" d="M87 43L88 44L87 43z"/>
<path style="fill:#f2f7fa; stroke:none;" d="M34 45L34 52L44 52L44 46L34 45z"/>
<path style="fill:#faea12; stroke:none;" d="M43 45L44 46L43 45z"/>
<path style="fill:#f2f7fa; stroke:none;" d="M45 45L46 52L50 52L50 45L45 45z"/>
<path style="fill:#faea12; stroke:none;" d="M50 45L50 46L53 47L50 45z"/>
<path style="fill:#f2f7fa; stroke:none;" d="M52 45L55 52L59 51C57.7413 46.8996 56.3315 45.3444 52 45M60 45L60 47L62 45L60 45M63 45L63 52L68 52L68 45L63 45z"/>
<path style="fill:#faea12; stroke:none;" d="M68.6667 45.3333L69.3333 45.6667L68.6667 45.3333z"/>
<path style="fill:#f2f7fa; stroke:none;" d="M70 45L70 52L74 52L74 45L70 45z"/>
<path style="fill:#faea12; stroke:none;" d="M74 45L75 51L76 51L74 45z"/>
<path style="fill:#f2f7fa; stroke:none;" d="M75 45L75 52C80.0778 50.4532 80.0778 46.5468 75 45z"/>
<path style="fill:#faea12; stroke:none;" d="M38.3333 46.6667L38.6667 47.3333L38.3333 46.6667z"/>
<path style="fill:#ed262d; stroke:none;" d="M39.3333 46.6667L39.6667 47.3333L39.3333 46.6667z"/>
<path style="fill:#faea12; stroke:none;" d="M63 46L63 51L64 51L63 46z"/>
<path style="fill:#f2f7fa; stroke:none;" d="M59.3333 47.6667L59.6667 48.3333L59.3333 47.6667z"/>
<path style="fill:#64c5e9; stroke:none;" d="M18 48L19 49L18 48z"/>
<path style="fill:#faea12; stroke:none;" d="M53 48L54 49L53 48M38.3333 49.6667L38.6667 50.3333L38.3333 49.6667z"/>
<path style="fill:#ed262d; stroke:none;" d="M39.3333 49.6667L39.6667 50.3333L39.3333 49.6667z"/>
<path style="fill:#64c5e9; stroke:none;" d="M85 49L86 50L85 49M16 51L17 52L16 51z"/>
<path style="fill:#faea12; stroke:none;" d="M45 51L46 52L45 51z"/>
<path style="fill:#64c5e9; stroke:none;" d="M86 51L87 52L86 51M15 53L16 54L15 53z"/>
<path style="fill:#4a4c4f; stroke:none;" d="M16 55L16 59L19 56L16 55z"/>
<path style="fill:#64c5e9; stroke:none;" d="M18 55L19 56L18 55M21 55L23 59L23 55L21 55M63 58L64 58L64 56L65 56L65 59L66 59L65 55L63 58M67 55L67 59L68 59L67 55z"/>
<path style="fill:#4a4c4f; stroke:none;" d="M68 55L68 59L69 59L68 55M81 55L81 59L82 59L81 55z"/>
<path style="fill:#64c5e9; stroke:none;" d="M82 55L82 59L83 59L82 55z"/>
<path style="fill:#4a4c4f; stroke:none;" d="M22 56L23 59L24 59L24 56L22 56M27 56L27 59L29 59L29 56L27 56z"/>
<path style="fill:#64c5e9; stroke:none;" d="M29 56L29 59L30 59L29 56z"/>
<path style="fill:#4a4c4f; stroke:none;" d="M32 56L32 59L33 59L34 56L32 56z"/>
<path style="fill:#64c5e9; stroke:none;" d="M36 56L38 59L36 56z"/>
<path style="fill:#4a4c4f; stroke:none;" d="M37 56L40 59L37 56M43 56L43 59L45 59L45 56L43 56z"/>
<path style="fill:#64c5e9; stroke:none;" d="M45 56L45 59L46 59L45 56M48 56L48 59L51 59L51 56L48 56z"/>
<path style="fill:#4a4c4f; stroke:none;" d="M49 56L50 57L49 56z"/>
<path style="fill:#64c5e9; stroke:none;" d="M53 56L54 57L53 56z"/>
<path style="fill:#4a4c4f; stroke:none;" d="M54 56L53 57L53 58L54 59L55 59L56 58L56 57L54 56z"/>
<path style="fill:#64c5e9; stroke:none;" d="M55 56L56 57L55 56M58 56L58 59L60 56L58 56z"/>
<path style="fill:#4a4c4f; stroke:none;" d="M60 56L59 59L60 56M64 56L64 59L65 59L64 56z"/>
<path style="fill:#64c5e9; stroke:none;" d="M71 56L72 57L71 56z"/>
<path style="fill:#4a4c4f; stroke:none;" d="M71 57L71 58L74 59L74 56L71 57z"/>
<path style="fill:#64c5e9; stroke:none;" d="M76 56L76 59L77 59L76 56z"/>
<path style="fill:#4a4c4f; stroke:none;" d="M77 56L79 59L77 56z"/>
<path style="fill:#64c5e9; stroke:none;" d="M78 56L79 57L78 56z"/>
<path style="fill:#4a4c4f; stroke:none;" d="M85 56L87 59L88 58L87 56L85 56z"/>
<path style="fill:#64c5e9; stroke:none;" d="M87 56L88 57L87 56M11 57C11.4697 76.4319 40.915 76.0672 55 75.9992C61.2306 75.9692 72.7383 76.5831 74 69C51.3295 69.4679 29.4043 73.5007 11 57M18 57L19 58L18 57M40.3333 57.6667L40.6667 58.3333L40.3333 57.6667z"/>
<path style="fill:#4a4c4f; stroke:none;" d="M48 57L49 58L48 57z"/>
<path style="fill:#64c5e9; stroke:none;" d="M61 57L62 58L61 57M69 57L70 58L69 57M73 57L74 58L73 57z"/>
<path style="fill:#4a4c4f; stroke:none;" d="M49 58L50 59L49 58z"/>
<path style="fill:#64c5e9; stroke:none;" d="M53 58L54 59L53 58M55 58L56 59L55 58M71 58L72 59L71 58M85 58L86 59L85 58M87 58L88 59L87 58z"/>
<path style="fill:#ed262d; stroke:none;" d="M106 61L107 62L106 61z"/>
<path style="fill:#faea12; stroke:none;" d="M106 62L107 63L106 62z"/>
</svg>
